name C:\Users\r0593348\3dpredictsim\Results\MidTarsalJoint\Fal_s1_bCst_PF_Natali2010_ls150_MT_k400_MTP_T5_ig21.mot
datacolumns 128
datarows 4
range 0.00000000 0.03380521
endheader
time	pelvis_tilt	pelvis_list	pelvis_rotation	pelvis_tx	pelvis_ty	pelvis_tz	hip_flexion_l	hip_adduction_l	hip_rotation_l	hip_flexion_r	hip_adduction_r	hip_rotation_r	knee_angle_l	knee_angle_r	ankle_angle_l	ankle_angle_r	subtalar_angle_l	subtalar_angle_r	mtj_angle_l	mtj_angle_r	mtp_angle_l	mtp_angle_r	lumbar_extension	lumbar_bending	lumbar_rotation	arm_flex_l	arm_add_l	arm_rot_l	arm_flex_r	arm_add_r	arm_rot_r	elbow_flex_l	elbow_flex_r	pro_sup_l	pro_sup_r	glut_med1_l/activation	glut_med2_l/activation	glut_med3_l/activation	glut_min1_l/activation	glut_min2_l/activation	glut_min3_l/activation	semimem_l/activation	semiten_l/activation	bifemlh_l/activation	bifemsh_l/activation	sar_l/activation	add_long_l/activation	add_brev_l/activation	add_mag1_l/activation	add_mag2_l/activation	add_mag3_l/activation	tfl_l/activation	pect_l/activation	grac_l/activation	glut_max1_l/activation	glut_max2_l/activation	glut_max3_l/activation	iliacus_l/activation	psoas_l/activation	quad_fem_l/activation	gem_l/activation	peri_l/activation	rect_fem_l/activation	vas_med_l/activation	vas_int_l/activation	vas_lat_l/activation	med_gas_l/activation	lat_gas_l/activation	soleus_l/activation	tib_post_l/activation	flex_dig_l/activation	flex_hal_l/activation	tib_ant_l/activation	per_brev_l/activation	per_long_l/activation	per_tert_l/activation	ext_dig_l/activation	ext_hal_l/activation	ercspn_l/activation	intobl_l/activation	extobl_l/activation	glut_med1_r/activation	glut_med2_r/activation	glut_med3_r/activation	glut_min1_r/activation	glut_min2_r/activation	glut_min3_r/activation	semimem_r/activation	semiten_r/activation	bifemlh_r/activation	bifemsh_r/activation	sar_r/activation	add_long_r/activation	add_brev_r/activation	add_mag1_r/activation	add_mag2_r/activation	add_mag3_r/activation	tfl_r/activation	pect_r/activation	grac_r/activation	glut_max1_r/activation	glut_max2_r/activation	glut_max3_r/activation	iliacus_r/activation	psoas_r/activation	quad_fem_r/activation	gem_r/activation	peri_r/activation	rect_fem_r/activation	vas_med_r/activation	vas_int_r/activation	vas_lat_r/activation	med_gas_r/activation	lat_gas_r/activation	soleus_r/activation	tib_post_r/activation	flex_dig_r/activation	flex_hal_r/activation	tib_ant_r/activation	per_brev_r/activation	per_long_r/activation	per_tert_r/activation	ext_dig_r/activation	ext_hal_r/activation	ercspn_r/activation	intobl_r/activation	extobl_r/activation	
          0.00000000	         -2.92943782	         -2.14022657	          5.37878347	          0.00000000	          0.91853091	         -0.00205853	        -16.91560857	         -1.06478785	          6.54304340	         28.93052003	          3.63789266	         -2.14632324	         -8.29378491	        -11.07725230	         -1.47512722	          5.52788661	          8.05842404	         -5.33861398	          3.21527316	         -0.13486732	         15.72622050	          0.62949753	         -1.84982422	          0.39271103	         -1.99255026	          4.92383699	        -13.45704090	         16.45516864	         -5.80522749	        -13.45228948	          6.22418908	         34.34508336	         16.60575602	         86.51662706	         86.51662706	          0.28061504	          0.08806950	          0.06883575	          0.27905097	          0.17777710	          0.09952708	          0.05000614	          0.05000136	          0.05000179	          0.05226509	          0.09880171	          0.09185362	          0.08181899	          0.05020425	          0.05001575	          0.05236797	          0.28416511	          0.05546440	          0.05000794	          0.05000485	          0.05000368	          0.05000444	          0.35550627	          0.57372385	          0.05000133	          0.05001963	          0.05939038	          0.18894916	          0.05000644	          0.15739936	          0.13010062	          0.26014955	          0.35797014	          0.31099758	          0.26531178	          0.24691574	          0.32598043	          0.05000011	          0.05000079	          0.11146886	          0.05000043	          0.05000012	          0.05000052	          0.05000009	          0.07202048	          0.05000553	          0.05633168	          0.05000179	          0.05000033	          0.05939111	          0.05939023	          0.05000071	          0.18797123	          0.05000057	          0.06393760	          0.05000036	          0.05000099	          0.11822197	          0.23857404	          0.22239454	          0.16049615	          0.10347068	          0.05000054	          0.07054467	          0.09363818	          0.05000179	          0.05000662	          0.11675718	          0.06966093	          0.06319604	          0.55007582	          0.17417283	          0.16693840	          0.07907528	          0.18233460	          0.18158885	          0.15721685	          0.05000003	          0.05000007	          0.05000001	          0.05000027	          0.05000246	          0.05000197	          0.52862560	          0.24974451	          0.18641193	          0.21075508	          0.47865504	          0.05939322	          0.05000036	          0.11257143	          0.09671250	
          0.01126840	         -2.92525427	         -2.23376615	          5.64128763	          0.01710985	          0.91768041	         -0.00186998	        -16.81807437	         -1.36938377	          6.32718413	         28.25539562	          3.93756822	         -1.89786918	        -10.14563542	        -11.55320431	         -2.09267181	          4.87514731	          9.01749520	         -5.73396559	          2.45535313	         -0.27911996	         17.35171308	          0.61769124	         -1.64023203	          0.60376478	         -2.05341054	          4.62811631	        -13.46047594	         16.76934882	         -6.71138918	        -13.45201351	          6.00844049	         35.46403951	         16.28640325	         86.51662706	         86.51662706	          0.33859888	          0.07414469	          0.05795209	          0.23493000	          0.14966852	          0.08379073	          0.05000415	          0.05000152	          0.05000110	          0.05000033	          0.08318048	          0.13236503	          0.08652975	          0.05939271	          0.05939185	          0.05939100	          0.23923621	          0.07044681	          0.05120434	          0.05001474	          0.05001719	          0.05938539	          0.29930532	          0.56494398	          0.05685634	          0.05000240	          0.05000034	          0.15907408	          0.12455033	          0.13251438	          0.10953155	          0.21901675	          0.30137075	          0.26182509	          0.22336307	          0.20787592	          0.27443954	          0.05000004	          0.05000099	          0.14071838	          0.05000019	          0.05000006	          0.05000026	          0.05131978	          0.06063318	          0.05939052	          0.20462099	          0.05000024	          0.05001141	          0.05000077	          0.05000033	          0.19314626	          0.17454072	          0.08220846	          0.07608127	          0.05000122	          0.05015603	          0.09952979	          0.20085279	          0.18723160	          0.13512016	          0.10828220	          0.05000120	          0.05939389	          0.07883588	          0.05000178	          0.09999261	          0.09829674	          0.05939012	          0.05766953	          0.46310223	          0.14663415	          0.15946888	          0.06657253	          0.15350536	          0.15287753	          0.13235902	          0.05348716	          0.05614138	          0.05264898	          0.05000153	          0.05000177	          0.05000177	          0.44702334	          0.27411703	          0.15794072	          0.17743225	          0.54559031	          0.05000247	          0.05000003	          0.12140907	          0.08142109	
          0.02253681	         -2.91891668	         -2.32987591	          5.86935496	          0.03440568	          0.91689308	         -0.00167790	        -16.63777719	         -1.67266344	          6.10974402	         27.46870972	          4.18393398	         -1.63821361	        -12.11608258	        -12.01368311	         -2.87034110	          4.28486327	          9.93829985	         -6.13243366	          1.62297050	         -0.22180415	         18.97905572	          0.63167078	         -1.42335686	          0.82699205	         -2.10514845	          4.26954277	        -13.46501950	         17.01749376	         -7.61755477	        -13.45685548	          5.84415663	         36.55986415	         16.00463946	         86.51662706	         86.51662706	          0.29355239	          0.06242157	          0.05000021	          0.35814945	          0.12600430	          0.07054253	          0.05000424	          0.05000040	          0.05000034	          0.05000070	          0.07053751	          0.11143965	          0.07284857	          0.05000240	          0.05000273	          0.05000172	          0.25611300	          0.05931039	          0.05000109	          0.05000309	          0.05000176	          0.05000114	          0.25198241	          0.53134390	          0.05000021	          0.05000141	          0.05000078	          0.13392398	          0.10486005	          0.11157224	          0.14042284	          0.18438755	          0.25372039	          0.22042736	          0.18804675	          0.17500848	          0.23104754	          0.05000045	          0.07485917	          0.14881434	          0.05000108	          0.07396881	          0.05000103	          0.06004992	          0.05104634	          0.05000020	          0.29469604	          0.25627794	          0.26317951	          0.17294053	          0.20992127	          0.16261186	          0.14694376	          0.06921071	          0.06405201	          0.07188823	          0.05000314	          0.08379300	          0.16909561	          0.15762831	          0.11375651	          0.13002621	          0.05000162	          0.05000391	          0.06637170	          0.18674085	          0.15551373	          0.10498324	          0.05000022	          0.05000022	          0.38988025	          0.12344978	          0.13425604	          0.05604673	          0.12923624	          0.13232994	          0.11143365	          0.05000069	          0.05000295	          0.05000018	          0.05000023	          0.05000061	          0.05000083	          0.56774317	          0.34236554	          0.18609593	          0.44904123	          0.52637933	          0.22747387	          0.07112390	          0.10310318	          0.06854745	
          0.03380521	         -2.91074434	         -2.41464090	          6.06222765	          0.05169764	          0.91620683	         -0.00145186	        -16.34151311	         -1.95956214	          5.90453769	         26.67917200	          4.42455978	         -1.38769729	        -14.23639040	        -12.48488667	         -3.80736664	          3.73776392	         10.82163199	         -6.53139237	          0.72757000	         -0.25797686	         20.49957058	          0.63554836	         -1.21658472	          1.04550782	         -2.14890725	          3.88614832	        -13.47682358	         17.22865076	         -8.48418684	        -13.45976464	          5.73011102	         37.60323474	         15.73907720	         86.51662706	         86.51662706	          0.26911000	          0.05255204	          0.05000012	          0.30152251	          0.10608165	          0.05938903	          0.05000325	          0.05000039	          0.05000033	          0.05000028	          0.05938582	          0.15138911	          0.09018050	          0.05000464	          0.05000655	          0.05000663	          0.22552224	          0.05955894	          0.05000121	          0.05000308	          0.05000201	          0.05000146	          0.21214106	          0.49122940	          0.05000023	          0.05000076	          0.05000020	          0.11274902	          0.11822110	          0.11822084	          0.11822096	          0.15523364	          0.21360413	          0.18557512	          0.15831436	          0.14733776	          0.19451630	          0.09452194	          0.12623468	          0.13400637	          0.05000203	          0.14689834	          0.05000279	          0.08530468	          0.05000003	          0.05000009	          0.37748986	          0.34637494	          0.37702065	          0.20088956	          0.17673221	          0.23655404	          0.12371043	          0.08681853	          0.07126990	          0.06052234	          0.05000093	          0.07054458	          0.15147787	          0.19557406	          0.19198993	          0.16283248	          0.05000059	          0.05030176	          0.10955116	          0.24140814	          0.19399075	          0.15876650	          0.05000035	          0.05000030	          0.32823556	          0.10393113	          0.20002988	          0.05000013	          0.16789466	          0.17943689	          0.13851035	          0.05000007	          0.05000013	          0.05000002	          0.05000004	          0.05000040	          0.05000034	          0.62390180	          0.28823352	          0.15667197	          0.51140130	          0.58502308	          0.25270525	          0.08964118	          0.08680137	          0.05770929	
